<svg viewBox="0 0 24 24" fill="none" xmlns="http://www.w3.org/2000/svg" class="opacity-70 md:opacity-100 h-5 w-5 ml-1 md:text-skin-base"><path d="M3.353 8.95A7.511 7.511 0 0 1 8.95 3.353c2.006-.47 4.094-.47 6.1 0a7.511 7.511 0 0 1 5.597 5.597c.47 2.006.47 4.094 0 6.1a7.511 7.511 0 0 1-5.597 5.597c-2.006.47-4.094.47-6.1 0a7.511 7.511 0 0 1-5.597-5.597 13.354 13.354 0 0 1 0-6.1Z" stroke="currentColor" stroke-width="1.5"></path><path d="M12 15.5v-4" stroke="currentColor" stroke-width="1.5" stroke-linecap="round" stroke-linejoin="round"></path><circle cx="12" cy="9" r="0.5" stroke="currentColor" stroke-linecap="round" stroke-linejoin="round"></circle></svg>