<svg xmlns="http://www.w3.org/2000/svg" viewBox="0 0 20 20" fill="none" class="h-5 w-5"><path stroke="currentColor" stroke-linecap="round" stroke-width="1.5" d="m6.793 8.625 2.142 1.53a1.832 1.832 0 0 0 2.13 0l2.142-1.53M2.404 12.626a10.897 10.897 0 0 1 0-5.252 6.127 6.127 0 0 1 4.621-4.506l.379-.084a12 12 0 0 1 5.192 0l.379.084a6.127 6.127 0 0 1 4.62 4.506 10.897 10.897 0 0 1 0 5.252 6.127 6.127 0 0 1-4.62 4.506l-.379.084c-1.71.379-3.482.379-5.192 0l-.379-.084a6.127 6.127 0 0 1-4.62-4.506Z"></path></svg>