<svg xmlns="http://www.w3.org/2000/svg" viewBox="0 0 64 64" width="64" height="64"><path fill="#5e71ff" d="M58 53H6a3.003 3.003 0 0 1-3-3V16a3.003 3.003 0 0 1 3-3h13.778a1 1 0 0 1 0 2H6a1 1 0 0 0-1 1v34a1 1 0 0 0 1 1h52a1 1 0 0 0 1-1V16a1 1 0 0 0-1-1h-3a1 1 0 0 1 0-2h3a3.003 3.003 0 0 1 3 3v34a3.003 3.003 0 0 1-3 3Z" class="color000000 svgShape"></path><path fill="#5e71ff" d="M38 61H26a.999.999 0 0 1-.948-1.316A18.476 18.476 0 0 0 26 53.838V52a1 1 0 0 1 1-1h10a1 1 0 0 1 1 1v1.838a18.476 18.476 0 0 0 .948 5.846A.999.999 0 0 1 38 61Zm-10.661-2h9.322A20.427 20.427 0 0 1 36 53.838V53h-8v.838A20.427 20.427 0 0 1 27.339 59Z" class="color000000 svgShape"></path><path fill="#5e71ff" d="M46 61H18a1 1 0 0 1 0-2h28a1 1 0 0 1 0 2zm14-13H27.52a1 1 0 0 1 0-2H60a1 1 0 0 1 0 2zm-42.52 0H4a1 1 0 0 1 0-2h13.48a1 1 0 1 1 0 2zM38 26.243a1 1 0 0 1-.707-.293L34.343 23H26a3.003 3.003 0 0 1-3-3V6a3.003 3.003 0 0 1 3-3h12.506a1 1 0 0 1 0 2H26a1 1 0 0 0-1 1v14a1 1 0 0 0 1 1h8.758a1 1 0 0 1 .707.293L38 23.828l2.535-2.535a1 1 0 0 1 .707-.293H49a1 1 0 0 0 1-1V6a1 1 0 0 0-1-1h-3.718a1 1 0 0 1 0-2H49a3.003 3.003 0 0 1 3 3v14a3.003 3.003 0 0 1-3 3h-7.344l-2.949 2.95a1 1 0 0 1-.707.293z" class="color000000 svgShape"></path><path fill="#5e71ff" d="M35 11h-6a1 1 0 0 1 0-2h6a1 1 0 0 1 0 2zm5 4H29a1 1 0 0 1 0-2h11a1 1 0 0 1 0 2zm11 27H13a1 1 0 0 1 0-2h37V27a1 1 0 0 1 2 0v14a1 1 0 0 1-1 1z" class="color000000 svgShape"></path><path fill="#5e71ff" d="M18.001 38a1 1 0 0 1-.497-1.868l7-4a.996.996 0 0 1 1.01.01L30 34.835l9.485-5.691a1 1 0 0 1 1.115.057l3.435 2.575 2.41-1.607a1 1 0 0 1 1.11 1.664l-3 2A.999.999 0 0 1 43.4 33.8l-3.463-2.596-9.423 5.654a.998.998 0 0 1-1.029 0l-4.498-2.7-6.491 3.71A.997.997 0 0 1 18 38Z" class="color000000 svgShape"></path></svg>